<svg width="67" height="67" xmlns="http://www.w3.org/2000/svg">

 <g>
  <title>background</title>
  <rect fill="none" id="canvas_background" height="69" width="69" y="-1" x="-1"/>
 </g>
 <g>
  <title>Layer 1</title>
  <path id="svg_1" fill-rule="evenodd" fill="#DD4B39" d="m32.083366,5.160252c8.837,0 16,7.164 16,16c0,8.837 -7.163,16 -16,16s-16,-7.163 -16,-16c0,-8.836 7.163,-16 16,-16z" clip-rule="evenodd"/>
  <path id="svg_2" fill="#fff" d="m34.50958,22.711504c-1.633,-1.163 -2.243,-1.712 -1.197,-2.633c1.045,-0.923 1.872,-1.669 1.872,-3.382l-1.415,-2.589s1.023,0.152 1.568,-0.154l0.782,-0.504l-5.204,0c-1.044,0 -3.939,1.184 -3.939,3.949c0,2.767 3.004,3.359 4.094,3.315c-0.61,0.747 -0.088,1.427 0.239,1.776c0.327,0.352 0.261,0.461 -0.13,0.461c-0.393,0 -5.227,0.053 -5.227,3.514s6.423,3.711 8.535,1.846c2.111,-1.865 1.654,-4.437 0.022,-5.599zm-3.092,-2.678c-2.592,0 -3.768,-6.058 -0.719,-6.058c2.373,-0.089 4.158,6.058 0.719,6.058zm-0.307,8.473c-2.154,0 -3.309,-1.075 -3.309,-2.678c0,-1.604 1.568,-2.393 4.508,-2.393c0.797,0.613 2.221,1.359 2.221,2.854c0,1.493 -1.268,2.217 -3.42,2.217zm7.894,-13.048l0,-1.97l-1.017,0l0,1.97l-1.992,0l0,1.022l1.992,0l0,1.973l1.017,0l0,-1.973l1.959,0l0,-1.022l-1.959,0z"/>
 </g>
</svg>